<?xml version="1.0" encoding="utf-8"?>
<!-- Generator: Adobe Illustrator 19.2.0, SVG Export Plug-In . SVG Version: 6.00 Build 0)  -->
<svg version="1.1" id="Camada_1" xmlns="http://www.w3.org/2000/svg" xmlns:xlink="http://www.w3.org/1999/xlink" x="0px" y="0px"
	 viewBox="0 0 230.1 172.7" style="enable-background:new 0 0 230.1 172.7;" xml:space="preserve">
<style type="text/css">
	.st0{fill:#C0282E;}
	.st1{fill:#FEFEFE;}
	.st2{fill:#CCCACA;}
</style>
<g>
	<path class="st0" d="M230.1,8.3c-1.6,0.3-2.5,1.7-3.6,2.7c-7.1,6.7-13.4,14.1-17.7,23c-2.1,4.4-3.4,8.9-3.4,13.8
		c0,2.3,0.7,4.2,2.4,6c7.9,8.2,13.6,17.6,16.4,28.7c4.1,16.4,0.9,31.6-8.2,45.6c-9.3,14.3-22.5,24.1-37.7,31.2
		c-17.2,8.1-35.5,11.9-54.4,13c-20.2,1.1-40-1.1-59.2-7.7c-17.8-6.2-33.7-15.4-46-30.1C9.1,123,3.6,109.8,4.1,94.6
		c0.4-13.6,5.5-25.4,13.8-36c0.9-1.1,1.7-2.4,2.8-3.2C25,52.1,24.9,47.6,24,43c-1.2-6.5-4.3-12.2-8-17.6c-4.2-6-9.2-11.3-14.5-16.2
		C1,8.8,0.7,8.2,0,8.3C0,8,0,7.7,0,7.4c0.7,0.2,1.1-0.3,1.7-0.5c14.8-6.6,30.1-8.3,46.1-5.5c14.5,2.6,27,9.3,38,19.1
		c0.7,0.6,1.2,1.5,2.5,1.2c4.7-0.9,9.5-1.3,14.3-1.5c12.6-0.6,25.1-0.7,37.6,1.2c2,0.3,3.3-0.1,4.8-1.4c5.6-5,11.7-9.5,18.5-12.5
		c21.8-9.8,43.7-10.2,65.6-0.3c0.4,0.2,0.7,0.6,1.2,0.2C230.1,7.7,230.1,8,230.1,8.3z M35.3,129.5c0.1,0.1,0.2,0.2,0.3,0.3l0.1,0.1
		c0.5,0.5,0.9,1,1.4,1.4c8.9,7.9,19.1,13.5,30.2,17.5c18.2,6.5,37,9,56.3,7.8c10.2-0.7,20.3-2.2,30.1-5c15.3-4.4,29.5-11.1,41-22.5
		c11.3-11.2,17.5-24.3,14.6-40.5c-1.7-9.3-6.2-17.2-13-23.8c-0.1-0.1-0.3-0.3-0.4-0.4c0-0.3-0.2-0.5-0.5-0.5l0,0
		c-0.1-0.3-0.2-0.5-0.5-0.4c-0.9-1.3-2.1-2.2-3.2-3.3c-1.2-1.2-2.9-1.8-3.6-3.5c0-1.3,0-2.7,0-4c-0.3-11.2,3.1-21.2,9.6-30.3
		c1.7-2.4,3.7-4.5,5.5-6.8c0.4-0.5,1.3-1.3-0.1-1.5c-2.3-0.4-4.6-1.2-7-0.7c-5.2-0.3-10.1,0.6-15,2.3c-12.7,4.3-23,12-31.9,21.7
		c-0.9,0.9-1.6,1.6-3,1.2c-7.5-1.8-15.1-2.8-22.8-3.2c-19.3-1.1-38.1,1.2-56.2,7.8C53.2,48.6,40.4,56,30.6,67.8
		c-6.4,7.7-10.5,16.5-10.8,26.7c-0.4,13,4.9,23.6,13.5,32.9c0,0.3,0.2,0.4,0.4,0.5c0.1,0.1,0.3,0.3,0.4,0.4c0.2,0.2,0.4,0.4,0.6,0.7
		c0,0,0.1,0.1,0.1,0.1c0.1,0.1,0.2,0.2,0.3,0.3L35.3,129.5z"/>
	<path class="st1" d="M188.3,56.8c0.7,1.6,2.4,2.3,3.6,3.5c1.1,1.1,2.3,2,3.2,3.3c0.2,0.1,0.4,0.3,0.5,0.4c0,0,0,0,0,0
		c0,0.3,0.2,0.5,0.5,0.5c0.1,0.1,0.3,0.3,0.4,0.4c-0.2,1.3,0.7,2.1,1.4,3c4.5,6.5,7.1,13.7,7.6,21.5c0.6,10.3-2.7,19.4-8.7,27.7
		c-6.6,9.2-15.4,15.8-25.3,21.1c-16.4,8.8-34.2,12.9-52.6,13.9c-11.4,0.6-22.8,0-34.1-2.1c-17.2-3.1-33.3-9-47.4-19.6
		c-0.5-0.3-0.9-0.9-1.6-0.4c0,0-0.1-0.1-0.1-0.1c0.2-0.4,0-0.5-0.3-0.3c0,0-0.1-0.1-0.1-0.1c0.1-0.4,0-0.4-0.3-0.3
		c0,0-0.1-0.1-0.1-0.1c0.2-0.6-0.2-0.6-0.6-0.7c-0.1-0.1-0.3-0.3-0.4-0.4c-0.1-0.2-0.3-0.3-0.4-0.5c-8.7-9.3-14-19.9-13.5-32.9
		c0.4-10.2,4.4-19,10.8-26.7C40.4,56,53.2,48.6,67.4,43.4c18.2-6.7,37-9,56.2-7.8c7.7,0.4,15.3,1.4,22.8,3.2c1.4,0.3,2.1-0.3,3-1.2
		c8.9-9.8,19.2-17.5,31.9-21.7c4.9-1.6,9.8-2.6,15-2.3c-1.7,2.9-3.9,5.6-5.3,8.8c-3.6,8.3-4.6,17.1-4,26
		C187.3,51.2,187.3,54.1,188.3,56.8z M158.9,77c-7.1,0-12.8,5.5-12.8,12.5c-0.1,7,5.6,12.8,12.6,12.8c7.1,0,12.7-5.5,12.8-12.6
		C171.6,82.7,166,77,158.9,77z M115,124.8c7,0,12.6-5.7,12.6-12.8c-0.1-7-5.7-12.6-12.8-12.5c-7,0-12.8,5.8-12.6,12.8
		C102.2,119.3,107.9,124.8,115,124.8z M58.4,89.7c0,7.2,5.5,12.6,12.6,12.6c7.1,0,12.6-5.6,12.6-12.7C83.6,82.5,78,77,70.9,77
		C63.8,77,58.3,82.5,58.4,89.7z"/>
	<path class="st2" d="M35.8,130c0.7-0.5,1.1,0.1,1.6,0.4C51.4,141,67.5,146.8,84.7,150c11.3,2.1,22.7,2.7,34.1,2.1
		c18.4-1,36.2-5.1,52.6-13.9c9.8-5.3,18.6-11.9,25.3-21.1c6-8.2,9.3-17.4,8.7-27.7c-0.5-7.8-3.1-15-7.6-21.5c-0.6-0.9-1.6-1.7-1.4-3
		c6.8,6.6,11.3,14.5,13,23.8c3,16.2-3.3,29.4-14.6,40.5c-11.5,11.4-25.6,18.1-41,22.5c-9.8,2.8-19.9,4.4-30.1,5
		c-19.3,1.2-38.1-1.2-56.3-7.8c-11.1-4-21.4-9.6-30.2-17.5C36.7,131,36.3,130.4,35.8,130z"/>
	<path class="st2" d="M188.3,56.8c-1-2.7-1-5.7-1.2-8.5c-0.6-8.9,0.4-17.7,4-26c1.4-3.2,3.6-5.8,5.3-8.8c2.4-0.5,4.7,0.3,7,0.7
		c1.4,0.2,0.5,1,0.1,1.5c-1.8,2.3-3.8,4.4-5.5,6.8c-6.5,9-9.9,19.1-9.6,30.3C188.4,54.1,188.3,55.5,188.3,56.8z"/>
	<path class="st2" d="M34.2,128.3c0.4,0,0.8,0.1,0.6,0.7C34.6,128.7,34.4,128.5,34.2,128.3z"/>
	<path class="st2" d="M195.6,64c-0.2-0.1-0.4-0.3-0.5-0.4C195.4,63.5,195.5,63.7,195.6,64z"/>
	<path class="st2" d="M196.1,64.5c-0.3,0-0.5-0.2-0.5-0.5C195.9,64,196,64.2,196.1,64.5z"/>
	<path class="st2" d="M33.3,127.4c0.1,0.2,0.3,0.3,0.4,0.5C33.5,127.8,33.3,127.7,33.3,127.4z"/>
	<path class="st2" d="M34.9,129.1c0.3-0.1,0.5,0,0.3,0.3C35.1,129.3,35,129.2,34.9,129.1z"/>
	<path class="st2" d="M35.3,129.5c0.3-0.1,0.5,0,0.3,0.3C35.6,129.7,35.5,129.6,35.3,129.5z"/>
	<path class="st0" d="M158.9,77c7.1,0,12.6,5.7,12.6,12.8c-0.1,7.1-5.7,12.6-12.8,12.6c-7,0-12.7-5.8-12.6-12.8
		C146.2,82.5,151.8,77,158.9,77z"/>
	<path class="st0" d="M115,124.8c-7.1,0-12.8-5.5-12.9-12.5c-0.1-6.9,5.6-12.7,12.6-12.8c7.1,0,12.8,5.5,12.8,12.5
		C127.6,119.1,122.1,124.7,115,124.8z"/>
	<path class="st0" d="M58.4,89.7c0-7.2,5.4-12.7,12.6-12.7c7.1,0,12.7,5.5,12.7,12.6c0,7.1-5.5,12.7-12.6,12.7
		C63.8,102.3,58.4,96.8,58.4,89.7z"/>
</g>
</svg>
